<svg xmlns="http://www.w3.org/2000/svg" xmlns:xlink="http://www.w3.org/1999/xlink" width="500" zoomAndPan="magnify" viewBox="0 0 375 374.999991" height="500" preserveAspectRatio="xMidYMid meet" version="1.0"><defs><clipPath id="id1"><path d="M 139 23.632812 L 236 23.632812 L 236 125 L 139 125 Z M 139 23.632812 " clip-rule="nonzero"/></clipPath><clipPath id="id2"><path d="M 233 83 L 325.433594 83 L 325.433594 171 L 233 171 Z M 233 83 " clip-rule="nonzero"/></clipPath><clipPath id="id3"><path d="M 233 189 L 325.433594 189 L 325.433594 278 L 233 278 Z M 233 189 " clip-rule="nonzero"/></clipPath><clipPath id="id4"><path d="M 139 236 L 236 236 L 236 337.132812 L 139 337.132812 Z M 139 236 " clip-rule="nonzero"/></clipPath><clipPath id="id5"><path d="M 49.433594 189 L 141 189 L 141 278 L 49.433594 278 Z M 49.433594 189 " clip-rule="nonzero"/></clipPath><clipPath id="id6"><path d="M 49.433594 83 L 141 83 L 141 171 L 49.433594 171 Z M 49.433594 83 " clip-rule="nonzero"/></clipPath></defs><g clip-path="url(#id1)"><path fill="#69c9d2" d="M 155.445312 57.84375 C 164.332031 57.84375 171.535156 65.039062 171.535156 73.917969 C 171.535156 82.796875 164.332031 89.992188 155.445312 89.992188 C 146.5625 89.992188 139.363281 82.796875 139.363281 73.917969 C 139.363281 65.039062 146.5625 57.84375 155.445312 57.84375 Z M 219.417969 57.84375 C 228.300781 57.84375 235.503906 65.039062 235.503906 73.917969 C 235.503906 82.796875 228.300781 89.992188 219.417969 89.992188 C 210.535156 89.992188 203.332031 82.796875 203.332031 73.917969 C 203.332031 65.039062 210.535156 57.84375 219.417969 57.84375 Z M 179.195312 53.519531 C 174.324219 50.609375 171.347656 45.382812 171.347656 39.707031 C 171.347656 30.832031 178.550781 23.636719 187.433594 23.636719 C 196.316406 23.636719 203.519531 30.832031 203.519531 39.707031 C 203.519531 45.242188 200.722656 50.125 196.464844 53.011719 C 188.351562 58.523438 187.03125 89.09375 195.777344 94.382812 C 200.421875 97.199219 203.519531 102.300781 203.519531 108.125 C 203.519531 117.003906 196.316406 124.203125 187.433594 124.203125 C 178.550781 124.203125 171.347656 117.003906 171.347656 108.125 C 171.347656 102.257812 174.496094 97.125 179.195312 94.320312 C 186.910156 89.796875 186.945312 58.164062 179.195312 53.519531 Z M 179.195312 53.519531 " fill-opacity="1" fill-rule="evenodd"/></g><g clip-path="url(#id2)"><path fill="#34c5f0" d="M 309.625 146.792969 C 314.066406 154.484375 311.429688 164.316406 303.734375 168.753906 C 296.039062 173.191406 286.199219 170.558594 281.761719 162.871094 C 277.320312 155.179688 279.957031 145.347656 287.648438 140.910156 C 295.34375 136.472656 305.179688 139.105469 309.625 146.792969 Z M 293.257812 109.820312 C 293.34375 104.152344 296.386719 98.960938 301.304688 96.125 C 308.996094 91.6875 318.832031 94.320312 323.273438 102.011719 C 327.71875 109.695312 325.085938 119.53125 317.390625 123.96875 C 312.59375 126.734375 306.964844 126.753906 302.332031 124.515625 C 293.5 120.246094 266.347656 134.390625 266.136719 144.605469 C 266.015625 150.03125 263.144531 155.265625 258.097656 158.175781 C 250.402344 162.613281 240.566406 159.980469 236.125 152.292969 C 231.683594 144.605469 234.316406 134.773438 242.011719 130.335938 C 247.097656 127.402344 253.117188 127.554688 257.902344 130.222656 C 265.679688 134.636719 293.109375 118.851562 293.257812 109.820312 Z M 277.636719 91.433594 C 282.078125 99.121094 279.441406 108.953125 271.75 113.390625 C 264.054688 117.832031 254.21875 115.195312 249.777344 107.507812 C 245.335938 99.820312 247.96875 89.988281 255.664062 85.546875 C 263.355469 81.109375 273.195312 83.742188 277.636719 91.433594 Z M 277.636719 91.433594 " fill-opacity="1" fill-rule="evenodd"/></g><g clip-path="url(#id3)"><path fill="#00afef" d="M 309.625 213.972656 C 305.183594 221.660156 295.34375 224.296875 287.648438 219.855469 C 279.957031 215.417969 277.320312 205.585938 281.761719 197.898438 C 286.199219 190.210938 296.039062 187.574219 303.734375 192.015625 C 311.429688 196.453125 314.066406 206.285156 309.625 213.972656 Z M 277.640625 269.335938 C 273.195312 277.023438 263.355469 279.660156 255.664062 275.21875 C 247.96875 270.78125 245.335938 260.949219 249.777344 253.261719 C 254.21875 245.570312 264.058594 242.9375 271.75 247.375 C 279.441406 251.816406 282.078125 261.648438 277.640625 269.335938 Z M 301.5 236.6875 C 306.453125 233.925781 312.472656 233.964844 317.390625 236.800781 C 325.085938 241.238281 327.71875 251.070312 323.273438 258.757812 C 318.832031 266.449219 308.996094 269.082031 301.304688 264.644531 C 296.507812 261.878906 293.675781 257.015625 293.300781 251.886719 C 292.585938 242.109375 266.746094 225.683594 257.792969 230.605469 C 253.027344 233.214844 247.058594 233.347656 242.011719 230.433594 C 234.316406 225.996094 231.683594 216.164062 236.125 208.476562 C 240.566406 200.789062 250.402344 198.152344 258.097656 202.59375 C 263.183594 205.527344 266.058594 210.816406 266.140625 216.285156 C 266.203125 225.226562 293.597656 241.070312 301.5 236.6875 Z M 301.5 236.6875 " fill-opacity="1" fill-rule="evenodd"/></g><g clip-path="url(#id4)"><path fill="#69c9d2" d="M 219.421875 302.925781 C 210.535156 302.925781 203.332031 295.726562 203.332031 286.851562 C 203.332031 277.972656 210.535156 270.777344 219.421875 270.777344 C 228.304688 270.777344 235.503906 277.972656 235.503906 286.851562 C 235.503906 295.726562 228.304688 302.925781 219.421875 302.925781 Z M 195.675781 307.25 C 200.542969 310.160156 203.519531 315.386719 203.519531 321.058594 C 203.519531 329.9375 196.316406 337.136719 187.433594 337.132812 C 178.550781 337.136719 171.347656 329.9375 171.347656 321.058594 C 171.347656 315.527344 174.148438 310.644531 178.402344 307.753906 C 186.515625 302.246094 187.835938 271.675781 179.089844 266.386719 C 174.449219 263.566406 171.347656 258.46875 171.347656 252.640625 C 171.347656 243.761719 178.550781 236.570312 187.433594 236.566406 C 196.316406 236.570312 203.519531 243.761719 203.519531 252.640625 C 203.519531 258.511719 200.371094 263.644531 195.675781 266.449219 C 187.960938 270.972656 187.921875 302.605469 195.675781 307.25 Z M 155.449219 302.925781 C 146.566406 302.925781 139.363281 295.726562 139.363281 286.851562 C 139.363281 277.972656 146.566406 270.777344 155.445312 270.777344 C 164.332031 270.777344 171.535156 277.972656 171.535156 286.851562 C 171.535156 295.726562 164.332031 302.925781 155.449219 302.925781 Z M 155.449219 302.925781 " fill-opacity="1" fill-rule="evenodd"/></g><g clip-path="url(#id5)"><path fill="#34c5f0" d="M 65.242188 213.972656 C 60.800781 206.285156 63.441406 196.453125 71.132812 192.015625 C 78.824219 187.574219 88.664062 190.210938 93.105469 197.898438 C 97.546875 205.585938 94.914062 215.417969 87.21875 219.859375 C 79.523438 224.296875 69.6875 221.664062 65.242188 213.972656 Z M 81.609375 250.949219 C 81.523438 256.617188 78.480469 261.808594 73.566406 264.644531 C 65.871094 269.082031 56.03125 266.449219 51.589844 258.757812 C 47.148438 251.070312 49.785156 241.238281 57.480469 236.800781 C 62.273438 234.035156 67.902344 234.015625 72.535156 236.253906 C 81.367188 240.523438 108.519531 226.378906 108.730469 216.164062 C 108.851562 210.738281 111.722656 205.503906 116.769531 202.59375 C 124.464844 198.152344 134.300781 200.789062 138.742188 208.476562 C 143.1875 216.164062 140.550781 225.996094 132.855469 230.433594 C 127.769531 233.371094 121.75 233.210938 116.96875 230.546875 C 109.1875 226.132812 81.757812 241.917969 81.609375 250.949219 Z M 97.230469 269.335938 C 92.789062 261.648438 95.425781 251.816406 103.117188 247.378906 C 110.8125 242.941406 120.648438 245.574219 125.089844 253.261719 C 129.535156 260.949219 126.898438 270.78125 119.203125 275.21875 C 111.511719 279.660156 101.671875 277.023438 97.230469 269.335938 Z M 97.230469 269.335938 " fill-opacity="1" fill-rule="evenodd"/></g><g clip-path="url(#id6)"><path fill="#00afef" d="M 97.230469 91.433594 C 101.671875 83.742188 111.511719 81.109375 119.203125 85.546875 C 126.898438 89.988281 129.535156 99.820312 125.089844 107.507812 C 120.648438 115.195312 110.8125 117.832031 103.117188 113.390625 C 95.425781 108.953125 92.789062 99.121094 97.230469 91.433594 Z M 73.367188 124.082031 C 68.414062 126.839844 62.394531 126.804688 57.480469 123.96875 C 49.785156 119.53125 47.148438 109.695312 51.589844 102.011719 C 56.03125 94.320312 65.871094 91.6875 73.566406 96.125 C 78.359375 98.890625 81.191406 103.753906 81.566406 108.882812 C 82.285156 118.660156 108.121094 135.085938 117.074219 130.160156 C 121.839844 127.554688 127.808594 127.421875 132.855469 130.335938 C 140.550781 134.773438 143.1875 144.605469 138.742188 152.292969 C 134.300781 159.980469 124.464844 162.613281 116.769531 158.175781 C 111.683594 155.242188 108.8125 149.953125 108.726562 144.480469 C 108.664062 135.542969 81.269531 119.695312 73.367188 124.082031 Z M 65.246094 146.796875 C 69.6875 139.109375 79.523438 136.472656 87.21875 140.914062 C 94.914062 145.351562 97.546875 155.179688 93.105469 162.871094 C 88.664062 170.558594 78.824219 173.191406 71.132812 168.753906 C 63.4375 164.316406 60.800781 154.484375 65.246094 146.796875 Z M 65.246094 146.796875 " fill-opacity="1" fill-rule="evenodd"/></g><path fill="#00afef" d="M 187.433594 150.851562 C 203.753906 150.851562 216.988281 164.074219 216.988281 180.386719 C 216.988281 196.695312 203.753906 209.914062 187.433594 209.914062 C 171.113281 209.914062 157.878906 196.695312 157.878906 180.386719 C 157.878906 164.074219 171.113281 150.851562 187.433594 150.851562 Z M 187.433594 150.851562 " fill-opacity="1" fill-rule="evenodd"/></svg>